<svg id="Camada_1" data-name="Camada 1" xmlns="http://www.w3.org/2000/svg" viewBox="0 0 495.14 495"><path d="M435,602c1.47-6.07,2.42-12.32,4.49-18.17,6.56-18.47,19-31.85,36.56-40.48.87-.43,1.73-.86,2.57-1.34.24-.13.4-.43-.06.09-3.44-6.7-8.22-12.72-9.65-19.46-3.31-15.49-4.68-31.45,3.58-46.09,7.89-14,20.51-20.84,36.46-19.92,17.43,1,29.46,10.3,35.42,26.76,1.32,3.65,2.76,5.12,6.71,4.86,5.77-.37,11.59-.19,17.39-.05,2.51.06,4-.6,5.26-3,4.47-8.33,11.6-12.82,21.16-12.75,9.35.07,16.35,4.48,20.73,12.65,1.27,2.35,2.59,3.21,5.18,3.14,6.28-.17,12.57-.15,18.85,0,2.58.07,4-.53,4.81-3.29,4.15-13.64,13.25-22.57,26.81-26.78,2.74-.85,3.7-2.11,3.37-4.76a9.72,9.72,0,0,1,0-2.41c.94-7.32-.48-12.2-8.53-15.81-10.37-4.66-14.77-14.76-15.64-26.66-2.1,0-4.15.06-6.19,0-6.56-.23-9.46-3-9.62-9.48-.18-7.23,0-14.47,0-22.19H619.1V360.68h15.08a40.79,40.79,0,0,0-5.87-23.35,94.93,94.93,0,0,0-14.4-18.56c-12.44-12.1-22.83-25.43-28.48-41.95-14.12-41.25-5.85-77.92,24.33-109.06,20.6-21.26,46.42-31.11,76.15-30.73,43.54.55,85.54,33.11,96.33,75.36,10.32,40.45.51,75.52-29.61,104.49-10.23,9.83-18.72,20.38-21.3,34.73a27.14,27.14,0,0,0-.48,3.34c-.08,1.6,0,3.21,0,5.3H746V376.4H730.5v15.69c0,15.35-.31,15.68-15.65,16.66-.18,1-.43,2-.59,3.05-1.86,12.49-8.42,21.46-20.24,26.07-3.08,1.2-3.36,2.9-3.68,5.72-1,8.67.43,14.37,10.39,17.71,10.23,3.42,16.55,12.49,19.68,23.06.88,3,2.22,4.05,5.36,3.92,6.11-.27,12.25-.16,18.37,0,2.48,0,4-.55,5.25-3,4.43-8.36,11.57-12.82,21.14-12.77,9.36.05,16.32,4.52,20.75,12.64,1.28,2.34,2.57,3.23,5.18,3.15,6.28-.17,12.57-.14,18.85,0,2.57.05,3.92-.55,4.82-3.34,5.6-17.18,18.74-27.76,36.82-28.32,16.77-.51,29.39,7.38,36.95,22.45a36,36,0,0,1,3.63,12.88c.94,11.37,2.19,23-2.23,33.88-2.24,5.55-5.9,10.53-9,16,3.46,2,7.61,4,11.39,6.61,21.47,14.6,31.86,35.16,32.38,60.91.07,3.87-.2,7.75.06,11.6.33,5-1.3,8.79-5.85,11.14H791.78c-4.39-2.56-5.75-6.54-5.54-11.39.15-3.37,0-6.76,0-10.14.17-22.59,7.89-41.94,25.33-56.69,5.7-4.82,12.38-8.48,19-12.94-10.14-9.64-13-22.35-12.34-36.53-8.15,0-15.7-.11-23.23.12-1.15,0-2.67,1.44-3.33,2.6-4.8,8.38-11.79,13.1-21.58,13-9.57-.09-16.44-4.75-21-13-.56-1-1.57-2.5-2.4-2.52-8-.2-16-.12-24.44-.12,1.16,14.52-2.38,27-12.62,37.09,1.82.95,3,1.56,4.1,2.13,16.88,8.37,28.72,21.3,35.75,38.82,4.95,12.31,4.81,25.14,4.92,38,.05,4.84-.95,8.82-5.16,11.57H615.81c-4.22-2.75-5.43-6.75-5.11-11.59.25-3.69,0-7.41.06-11.11.09-22.37,8.31-41.17,25.35-55.69,5.65-4.82,12.35-8.4,19-12.82-10.5-9.59-13.14-22.39-12.4-36.47-8.23,0-15.79-.12-23.34.11-1.16,0-2.7,1.42-3.35,2.58-4.63,8.29-11.5,12.93-21.06,13-9.77.09-16.82-4.58-21.54-13-.56-1-1.57-2.53-2.41-2.55-8-.19-15.93-.11-24.2-.11.72,14.44-2.36,26.93-12.92,37.08,2.29,1.15,4,2,5.68,2.86a71.84,71.84,0,0,1,33.64,36.5c5.47,12.81,5.66,26.28,5.68,39.83,0,4.86-1.19,8.84-5.6,11.38H435ZM714.21,360.26c.14-1,.27-1.63.31-2.25,1.12-19.25,9.1-35.21,22.9-48.53,5.44-5.25,11-10.52,15.51-16.53,24-32,23.05-75-1.94-107.1-23.72-30.42-65.87-41-102.39-25.8-39.68,16.57-61.7,60.73-51.1,102.36,4.64,18.23,14.6,33.08,28.4,45.59,8.85,8,15.81,17.52,19.7,28.81,2.58,7.5,3.95,15.43,5.93,23.45Zm-7.66,240.12h15.93v15.23h15.88c1.19-23.55-6.43-42.67-26.67-55s-40.94-11.72-60.51,1.39c-18.76,12.59-25.75,31.18-24.46,53.61h16V600.46h16.08v15.08h47.77Zm-144.36,15.4a55.84,55.84,0,0,0-90.13-51.35c-15.46,12.31-24.74,35.84-20.2,51.22H467V600.41h16.09v15.31H530.8V600.47h16.25v15.31Zm272.13-.08h47.9V600.36h16.07v15.27h15.27c3.32-22.07-7.95-44.64-27.78-56.12-19.42-11.24-44-9.37-62.13,4.69-15.29,11.88-24.11,32.78-20.51,51.39h15.23V600.46h16ZM706.77,504.32c-.24-3.84-.18-7.89-.79-11.85a23.51,23.51,0,0,0-23.57-20c-11.8.05-21.93,8.42-23.25,20.29a107.47,107.47,0,0,0-.07,22.61,23.37,23.37,0,0,0,23.32,20.87,23.84,23.84,0,0,0,23.65-20.62C706.59,511.93,706.54,508.2,706.77,504.32Zm-223.57-.14c0,3.38-.22,6.77,0,10.13a23.77,23.77,0,0,0,23.43,21.89c12.32.13,23.18-9.64,23.91-22a159.25,159.25,0,0,0,0-20.26c-.83-12.18-11.42-21.56-23.72-21.54a23.52,23.52,0,0,0-23.58,21.62C483,497.41,483.21,500.8,483.2,504.18Zm351.15-.07h0c0,3.38-.21,6.78,0,10.14a24,24,0,0,0,23.49,22c12.16.18,22.92-9.25,23.81-21.43a144.88,144.88,0,0,0,0-20.73c-.89-12.58-11.41-21.8-24-21.61a23.82,23.82,0,0,0-23.35,22.51C834.21,498,834.35,501.06,834.35,504.11ZM650.79,392h63.3V377h-63.3Zm47,16.78H667.23c-.44,8.68,6.41,15.51,15.32,15.51S698.33,417.39,697.82,408.76ZM602.5,496.14a7.86,7.86,0,0,0-8.06-7.73,8.08,8.08,0,0,0-7.63,7.78,8.16,8.16,0,0,0,7.91,8A7.94,7.94,0,0,0,602.5,496.14Zm168.34-7.71a7.76,7.76,0,0,0-8.24,7.5,7.87,7.87,0,0,0,7.53,8.29,8.16,8.16,0,0,0,8.07-7.34A8,8,0,0,0,770.84,488.43Z" transform="translate(-435 -137.02)"/><path d="M690.31,185.31v15.78l15,6.35c3.18-3.9,6.8-8.37,10.64-13.09l12.23,13.5c-2.91,2.49-6.38,5.52-9.92,8.46-1.88,1.57-2.27,3-1,5.37,1.82,3.36,3.1,7,4.85,11.07h16.11v16.09c-4.24,0-8.53.18-12.79-.06-3-.17-4.5.9-5,3.75a6.19,6.19,0,0,1-.87,2.74c-5.06,6.27-1.92,10.57,3.26,14.53,1.79,1.36,3.36,3,5.32,4.77l-12.42,10.59-9.41-11.24c-5.69,2.2-9.91,3.62-13.92,5.52-1,.48-1.77,2.46-1.84,3.8-.24,4.17-.09,8.36-.09,12.95H674.63c0-4.34.23-8.66-.13-12.93a6,6,0,0,0-2.72-4.08c-3.53-1.83-7.35-3.11-12-5l-11,12.36L637.26,274.4c2.84-2.74,5.83-5.83,9.06-8.66,2.28-2,3.11-3.91,1.08-6.51a4.73,4.73,0,0,1-1.13-2.12c-.9-8.53-6.58-9.18-13.34-8.31a50,50,0,0,1-6,0V232.91h15.92c1.95-4.37,3.9-8.36,5.45-12.51.35-1-.34-2.76-1.14-3.61-3.21-3.37-6.64-6.52-9.8-9.56l11.77-11.72,10.25,12c5.14-2,9.21-3.44,13.07-5.29a4.85,4.85,0,0,0,2.11-3.54c.25-4.31.09-8.64.09-13.34ZM682.55,217a23.83,23.83,0,1,0,24,23.93A23.94,23.94,0,0,0,682.55,217Z" transform="translate(-435 -137.02)"/><path d="M666.88,328.52h31.26v15.76H666.88Z" transform="translate(-435 -137.02)"/></svg>