<svg id="icon-event" xmlns="http://www.w3.org/2000/svg" viewBox="0 0 371.45 372.06"><path d="M845.16,510h3.67c6.57.05,8.3,1.83,8.31,8.55,0,5,0,10,0,15.46,2,0,3.86-.07,5.67,0,3.82.17,6.2,2.31,6.26,6q.2,12,0,24c-.06,3.53-2.43,5.66-6,5.91-1.12.08-2.24,0-3.37,0H507c-7.86,0-9.31-1.47-9.31-9.43q0-9.18,0-18.37c0-6.35,1.85-8.16,8.28-8.21h3.7v-14.8c0-7.68,1.45-9.14,9.15-9.2h2.83v-4.05c0-25.5,0-51,.05-76.51a7,7,0,0,0-2.49-5.77,29.57,29.57,0,0,1-6.6-34.69c5.52-11.6,18.31-18.61,30.74-16.83A30.06,30.06,0,0,1,569,396.56a8.82,8.82,0,0,0,2,4.21c24.5,25.9,54.21,42.32,89.52,47.4,44.94,6.47,85.28-4.89,120.63-33.56,2.81-2.28,5.4-4.82,8.1-7.24,4.64-4.17,8.28-8.56,10-15.13,3-11.7,14.61-19.79,26.51-20.26a30,30,0,0,1,29,18.08,29.61,29.61,0,0,1-6.9,33.4,7.77,7.77,0,0,0-2.68,6.44C845.19,456.4,845.16,482.89,845.16,510ZM809,434.5c-34.19,37.23-75.62,57.39-125.65,57.36S592,471.69,557.89,434.57V510h2.85c7.34.06,8.86,1.62,8.86,9.13,0,4.84,0,9.68,0,14.66H797.24c0-5.81-.06-11.41,0-17,.06-4.45,2.27-6.64,6.68-6.77,1.69-.05,3.38,0,5.08,0ZM510,546.16v11.55h347V546.16Zm52.27-124.34c68.29,79.6,178.55,75.68,242.32-.09l-5-7.47c-32.62,31.22-71.21,47.66-116.22,47.63s-83.7-16.54-116.15-47.65Zm-4.65-19.75a17.95,17.95,0,1,0-17.87,17.87A18,18,0,0,0,557.59,402.07ZM827,419.94a18,18,0,1,0-17.73-18.39A18,18,0,0,0,827,419.94ZM545.41,509.83V431.76H533.9v78.07Zm275.8-.16H833V431.76H821.37a14.58,14.58,0,0,0-.16,1.52ZM557.45,522.25H522V533.8h35.47Zm251.94,11.48h35.47V522.18H809.39Z" transform="translate(-497.72 -197.96)"/><path d="M587.58,293.72c.06-56.68,49.53-101.28,105.59-95.21,51.18,5.55,88.37,49,86,100.56-1.87,40.47-30.58,76.5-69.6,87.15a11.82,11.82,0,0,0-7.27,5.19c-4.2,6.35-8.67,12.53-13.09,18.73-3.71,5.2-7.89,5.16-11.63-.09-4.77-6.72-9.4-13.54-14.3-20.17a8.64,8.64,0,0,0-4.36-3C616.42,375.11,587.53,337.46,587.58,293.72Zm95.84,103.79c4.05-5.75,7.9-10.93,11.42-16.34a12.63,12.63,0,0,1,8.31-5.64,84,84,0,0,0-22-165.56c-42.93.9-78.84,35.59-81.48,78.7a84.18,84.18,0,0,0,64.77,87.06,11.06,11.06,0,0,1,7.14,4.88C675.3,386.18,679.25,391.59,683.42,397.51Z" transform="translate(-497.72 -197.96)"/><path d="M647.94,334.65c1.44-8.75,2.91-18.12,4.55-27.46.46-2.65.16-4.63-1.93-6.66-6.26-6.09-12.25-12.46-18.37-18.69-2-2-3.33-4.15-2.36-7s3.13-3.91,6-4.3c8.15-1.14,16.25-2.55,24.4-3.64,3.11-.41,4.95-1.6,6.26-4.69,3.37-7.91,7.27-15.59,10.86-23.41,1.24-2.68,2.83-4.76,6-4.8s4.86,2,6.1,4.67c3.81,8.26,7.75,16.47,11.53,24.75a4.66,4.66,0,0,0,4.06,3.12c8.63,1.18,17.23,2.66,25.85,3.93,2.8.42,5.08,1.42,6.07,4.23,1.08,3-.43,5.27-2.46,7.33-6,6.05-11.77,12.24-17.85,18.15a7.19,7.19,0,0,0-2.28,7.27c1.63,8.83,2.9,17.72,4.39,26.58.47,2.84.15,5.72-2.55,6.77a9.4,9.4,0,0,1-6.9-.22c-7.78-3.92-15.36-8.25-22.92-12.6a5.15,5.15,0,0,0-5.82,0Q668.9,334.64,657,341C652.29,343.51,647.63,340.48,647.94,334.65Zm71.22-52.27-1.15-1.7c-6.23-1-12.45-2.11-18.71-2.85-3.81-.46-6-2.34-7.51-5.76-2.53-5.77-5.31-11.43-8.37-17.95-2.78,5.92-5.51,10.93-7.51,16.22s-5.46,7.49-10.9,7.93-10.89,1.61-16.33,2.45l-1.08,1.65c4.91,4.41,9.81,8.84,14.75,13.22,2.69,2.38,3.43,5.13,2.72,8.72-1.29,6.53-2.16,13.14-3.32,20.37,5.63-3.1,10.81-5.59,15.58-8.7,4.37-2.85,8.11-2.62,12.39.11,4.76,3,9.85,5.53,15.38,8.58-1.21-7.43-2.19-14.07-3.42-20.67-.61-3.26,0-5.87,2.5-8.1C709.2,291.43,714.17,286.89,719.16,282.38Z" transform="translate(-497.72 -197.96)"/></svg>